<svg  version="1.1" id="Layer_1" xmlns="http://www.w3.org/2000/svg" viewBox="0 0 221.819 256.532" xml:space="preserve">
<linearGradient id="XMLID_10_" gradientUnits="userSpaceOnUse" x1="111.4219" y1="160.041" x2="120.6689" y2="257.3691">
	<stop  offset="0" style="stop-color:#FFFFFF"/>
	<stop  offset="0.1814" style="stop-color:#FFFCFC"/>
	<stop  offset="0.3261" style="stop-color:#FEF3F2"/>
	<stop  offset="0.4581" style="stop-color:#FDE3E1"/>
	<stop  offset="0.5826" style="stop-color:#FBCDC9"/>
	<stop  offset="0.7018" style="stop-color:#F8B0AB"/>
	<stop  offset="0.817" style="stop-color:#F58C85"/>
	<stop  offset="0.927" style="stop-color:#F26359"/>
	<stop  offset="1" style="stop-color:#EF4438"/>
</linearGradient>
<path fill="url(#XMLID_10_)" d="M45.727,174.082l65.958,81.563l68.118-81.38L45.727,174.082z M119.142,183.631
	c0.861-1.224,3.701-1.843,4.19-1.28c0.404,0.462-0.272,1.392-0.116,2.056c-1.485,0.513-2.921,0.698-4.391,1.101
	C118.876,184.817,118.724,184.225,119.142,183.631z M121.149,200.929c-1.5,10.814-3.067,21.47-4.385,32.012
	c-0.263,2.111-0.338,4.113-1.186,6.103c-0.244,0.275-0.491,0.553-0.736,0.831c-1.057,0.698-2.078,1.098-2.832,0.456
	c-0.944-0.797-0.203-3.425-0.004-4.86c1.64-11.821,3.34-24.159,5.053-35.603c0.525-0.143,1.373-0.544,2.26-0.831
	c0.425-0.135,2.087-0.731,2.23-0.587C121.642,198.541,121.236,200.305,121.149,200.929z M106.639,205.339
	c-1.723,1.776-2.645,3.334-3.535,4.696c-2.171-1.177-3.203-3.259-3.674-5.283c-0.977-4.185,0.554-10.78,4.613-16.151
	c0.516-0.582,1.027-1.16,1.542-1.74c5.974,2.151,12.518,0.192,19.006-1.37c-0.515,3.783-0.923,7.537-1.633,11.372
	C118.328,197.723,111.9,199.908,106.639,205.339z"/>
<linearGradient id="XMLID_11_" gradientUnits="userSpaceOnUse" x1="85.4199" y1="127.2207" x2="15.6684" y2="25.1296">
	<stop  offset="0" style="stop-color:#FFFFFF"/>
	<stop  offset="0.4052" style="stop-color:#FDFEFE"/>
	<stop  offset="0.5512" style="stop-color:#F6F9F9"/>
	<stop  offset="0.6552" style="stop-color:#EBF0F0"/>
	<stop  offset="0.7394" style="stop-color:#DAE4E3"/>
	<stop  offset="0.8115" style="stop-color:#C4D4D3"/>
	<stop  offset="0.8753" style="stop-color:#A8C0BF"/>
	<stop  offset="0.933" style="stop-color:#88A8A7"/>
	<stop  offset="0.9844" style="stop-color:#648D8C"/>
	<stop  offset="1" style="stop-color:#578483"/>
</linearGradient>
<path fill="url(#XMLID_11_)" d="M3.718,63.574l39.559,107.947l63.2-119.465L3.718,63.574z M35.331,107.45
	c-3.631-7.416-9.129-1.866-9.129-1.866s2.678-3.411,5.859-5.174l17.797-27.869l-0.361,3.913L34.521,99.472
	c0.96-0.178,1.917-0.11,2.816,0.332c4.766,2.341,5.049,5.93,9.041,3.212l-0.861,8.474
	C45.517,111.489,38.961,114.866,35.331,107.45z M45.138,135.432l-2.979-20.342l3.306,2.951l5.821-51.75l2.938,8.571l5.789-9.518
	l-10.172,52.51l4.879-4.125L45.138,135.432z M63.603,104.384c-6.065,8.467-11.791,6.423-11.791,6.423l1.751-8.573
	c3.279,1.933,4.694-1.842,10.35-5.312c1.068-0.655,2.079-0.937,3.017-0.963L58.62,75.464l0.847-3.965l9.71,24.886
	c2.741,1.12,4.446,4.056,4.446,4.056S69.667,95.916,63.603,104.384z"/>
<path fill="#FFFFFF" d="M110.298,139.423l1.804-0.004l0.588-61.663l-1.803,0.005L110.298,139.423z M111.759,50.903
	L46.468,170.861h133.389L111.759,50.903z M123.08,146.987c-2.92-0.015-6.454,0.088-9.4,0.187
	c-0.304,2.058-0.335,4.274-0.388,6.572c-0.049,2.057-0.512,4.666-0.034,6.459c0.423,1.586,1.711,2.744,0.836,4.466
	c-0.642,0.623-1.283,1.246-1.924,1.869c-1.655,0.47-3.294,0.276-4.888-1.905c-0.203-1.489-0.501-2.977,1.043-4.455
	c-0.149-3.114,0.22-6.342,0.23-9.863c0.002-0.397,0.102-3-0.043-3.169c-0.351-0.416-2.481-0.13-3.167-0.135
	c-3.002-0.016-6.728,0.02-9.149-0.518c3.408-1.713,6.827-3.989,10.182-3.47c0.163-16.028,1.143-46.417,1.011-63.037
	c-0.019-2.206-0.447-5.557,0.166-7.042c0.925-2.249,3.319-3.977,4.718-5.965c0.935,1.848,3.456,3.826,4.326,5.895
	c0.614,1.464-0.002,5.028-0.051,7.162c-0.383,16.354-0.609,46.859-0.891,62.92c3.415-0.349,6.758,2.282,10.132,3.692
	C125.308,147.478,123.985,146.992,123.08,146.987z"/>
<linearGradient id="XMLID_12_" gradientUnits="userSpaceOnUse" x1="186.8623" y1="189.6396" x2="240.1269" y2="95.1585">
	<stop  offset="0" style="stop-color:#FFFFFF"/>
	<stop  offset="0.4052" style="stop-color:#FDFEFE"/>
	<stop  offset="0.5512" style="stop-color:#F6F9F9"/>
	<stop  offset="0.6552" style="stop-color:#EBF0F0"/>
	<stop  offset="0.7394" style="stop-color:#DAE4E3"/>
	<stop  offset="0.8115" style="stop-color:#C4D4D3"/>
	<stop  offset="0.8753" style="stop-color:#A8C0BF"/>
	<stop  offset="0.933" style="stop-color:#88A8A7"/>
	<stop  offset="0.9844" style="stop-color:#648D8C"/>
	<stop  offset="1" style="stop-color:#578483"/>
</linearGradient>
<path fill="url(#XMLID_12_)" d="M201.386,166.287c0,0,0.169,8.934,6.155,8.103C207.541,174.39,203.781,173.755,201.386,166.287z
	 M205.596,168.514c0,0-3.091-4.253-3.158-12.936C202.438,155.578,200.178,163.304,205.596,168.514z M201.121,171.385
	c-1.824-3.714-1.866-11.285-1.866-11.285C198.42,168.125,201.121,171.385,201.121,171.385z M185.732,172.154l36.087,19.342V63.77
	L185.732,172.154z M208.64,165.551c0,0-3.94-0.658-2.636-10.021c0,0,1.22-4.159,6.169-0.594c1.29,3.052,1.961,6.748,1.881,10.361
	c-0.383-2.15-2.112-5.251-3.509-7.615l-0.317,0.772C210.228,158.454,214.155,165.964,208.64,165.551z M219.147,118.316
	c0,0-0.891,24.132-6.565,35.223c-1.734-1.258-6.197-3.932-7.302,0.922c-1.379,6.06,0.583,11.281,3.266,12.388
	c3.415,1.408,4.971,1.189,5.433,0.109c-0.125,1.408-0.369,2.784-0.744,4.079c-1.992,6.874-6.876,8.882-10.909,4.481
	c-4.033-4.398-5.688-13.537-3.695-20.412c0.161-0.557,0.348-1.069,0.545-1.562c0.936-2.734,2.681-5.935,5.875-6.873
	c5.887-1.731,8.429-26.234,8.424-30.787c-0.008-4.552-0.277-10.487-0.277-10.487l0.873-1.836
	c0.236,2.004,1.892,17.482-1.723,30.22c0,0,7.732-15.706,2.527-31.915l0.874-1.838l3.46,5.499L219.147,118.316z M202.273,150.538
	c-4.029,5.326-0.995,12.867-0.995,12.867s-1.801-8.079,2.023-11.272c4.757-3.973,5.2-7.653,5.2-7.653
	C205.125,150.986,206.301,145.216,202.273,150.538z M212.945,147.335c3.645-4.188,3-10.143,3-10.143
	C215.804,142.221,212.945,147.335,212.945,147.335z"/>
<linearGradient id="XMLID_13_" gradientUnits="userSpaceOnUse" x1="223.0244" y1="169.1299" x2="114.5939" y2="252.8306">
	<stop  offset="0" style="stop-color:#FFFFFF"/>
	<stop  offset="0.1814" style="stop-color:#FFFCFC"/>
	<stop  offset="0.3261" style="stop-color:#FEF3F2"/>
	<stop  offset="0.4581" style="stop-color:#FDE3E1"/>
	<stop  offset="0.5826" style="stop-color:#FBCDC9"/>
	<stop  offset="0.7018" style="stop-color:#F8B0AB"/>
	<stop  offset="0.817" style="stop-color:#F58C85"/>
	<stop  offset="0.927" style="stop-color:#F26359"/>
	<stop  offset="1" style="stop-color:#EF4438"/>
</linearGradient>
<path fill="url(#XMLID_13_)" d="M183.836,175.519l-69.228,80.805l105.422-61.021L183.836,175.519z M176.564,199.566l2.361-3.065
	l1.458,0.645l4.196-2.412l-3.44,3.403l0.23,1.576l-3.583,1.458l-4.054,3.387l1.226-2.502l-2.736,0.516L176.564,199.566z
	 M154.668,213.655l2.361-3.064l1.457,0.643l4.196-2.41l-3.441,3.403l0.231,1.575l-3.585,1.46l-4.052,3.385l1.226-2.501
	l-2.736,0.515L154.668,213.655z M142.701,232.896l1.228-2.5l-2.738,0.516l4.342-3.005l2.362-3.065l1.456,0.644l4.198-2.412
	l-3.442,3.403l0.232,1.578l-3.584,1.458L142.701,232.896z M166.56,223.114l-3.584,1.459l-4.053,3.386l1.227-2.501l-2.737,0.515
	l4.342-3.004l2.362-3.066l1.457,0.644l4.196-2.41l-3.44,3.403L166.56,223.114z M164.167,219.334l-13.879,11.588l4.2-8.563
	l-9.371,1.766l14.865-10.288l8.086-10.495l4.987,2.203l14.37-8.253l-11.784,11.65l0.795,5.396L164.167,219.334z M182.34,207.155
	l-4.054,3.385l1.226-2.501l-2.737,0.515l4.344-3.006l2.36-3.065l1.458,0.646l4.196-2.412l-3.442,3.403l0.232,1.575
	L182.34,207.155z"/>
<linearGradient id="XMLID_14_" gradientUnits="userSpaceOnUse" x1="49.5049" y1="152.8047" x2="-29.7577" y2="112.8563">
	<stop  offset="0" style="stop-color:#FFFFFF"/>
	<stop  offset="0.4052" style="stop-color:#FDFEFE"/>
	<stop  offset="0.5512" style="stop-color:#F6F9F9"/>
	<stop  offset="0.6552" style="stop-color:#EBF0F0"/>
	<stop  offset="0.7394" style="stop-color:#DAE4E3"/>
	<stop  offset="0.8115" style="stop-color:#C4D4D3"/>
	<stop  offset="0.8753" style="stop-color:#A8C0BF"/>
	<stop  offset="0.933" style="stop-color:#88A8A7"/>
	<stop  offset="0.9844" style="stop-color:#648D8C"/>
	<stop  offset="1" style="stop-color:#578483"/>
</linearGradient>
<path fill="url(#XMLID_14_)" d="M0,64.682l0.003,126.346l40.326-18.665L0,64.682z M14.492,116.456
	c1.072,2.074,2.475,4.211,3.411,9.316c1.141,6.224,1.014,11.999-0.504,12.843c-1.338,0.744-3.026-1.336-4.261-4.081
	c1.979-2.451,3.217-7.337,0.542-19.366C13.811,115.071,14.18,115.848,14.492,116.456z M12.677,133.611
	c-0.01,0.008-0.022,0.002-0.034,0.006c-1.104,0.442-2.563-1.571-3.767-3.166c2.007-0.842,3.063-3.752,3.47-8.071
	c0.814,0.442,1.612,1.307,2.411,2.132C14.905,128.801,13.99,132.351,12.677,133.611z M9.396,99.65
	c0.344,0.581,0.994,3.063,1.301,3.941c0.375,1.065,1.1,2.495,1.32,3.505c0.313,1.437,0.128,2.546,0.528,4.094
	c-0.192-0.169-0.57-1.212-0.928-1.698c-0.662-0.897-1.233-0.828-1.732-2.409c-0.69-2.186-1.081-5.422-1.853-8.321
	C8.434,99.358,8.915,98.84,9.396,99.65z M3.775,116.106c-0.759-4.316-1.01-8.407-0.474-10.187c0.229,1.1,0.507,3.359,0.93,4.885
	c-0.363-3.467-1.112-7.774-0.028-8.102c0.21,1.875,0.504,4.464,1.118,6.729c-0.367-3.957-1.439-9.445-0.095-9.683
	c0.207,1.926,0.494,4.4,1.14,7.015c-0.184-2.204-0.534-4.771-0.831-7.22c0.001-2.073,1.027-3.636,2.019-1.27
	c0.935,3.564,1.206,6.45,2.051,9.154c0.844,2.701,2.251,2.701,3.11,5.321c0.812,2.477,1.624,7.256,1.913,10.049
	c-0.4-0.359-0.854-0.738-1.351-1.182c-0.424-0.377-1.023-1.194-1.323-1.042c-0.25,0.127-0.259,1.763-0.385,2.828
	c-0.357,3.034-1.229,4.557-2.621,5.296c-0.231,0.122-0.598,0.491-0.939,0.187c-0.968-0.862-2.926-6.608-3.82-10.688
	C4.014,117.396,3.888,116.741,3.775,116.106z M6.125,139.572c-0.048-0.932-0.391-3.476-0.292-4.142
	c0.136-0.933,0.778-0.638,0.921-1.341c0.389,2.977,1.257,6.118,1.449,8.402c0.14,1.651-0.416,1.803-0.687,2.887
	c-0.147,0.586-0.102,1.691-0.215,1.925c-0.217-1.587-0.811-2.545-1.066-3.99C6.056,142.297,6.185,140.7,6.125,139.572z
	 M13.231,174.516c-1.725-0.204-4.036-5.501-5.346-11.69c-1.073-5.078-0.589-7.588-0.385-9.916
	c0.06-0.678,0.107-1.537,0.264-1.498c2.095,12.146,5.097,16.193,7.857,17.707C15.523,172.127,14.751,174.694,13.231,174.516z
	 M15.733,168.083c-0.012,0.001-0.023,0.013-0.034,0.006c-1.693-0.665-3.89-3.601-5.381-7.624
	c0.425-1.067,0.835-2.169,1.421-2.887c2.018,3.838,4.098,6.132,6.275,6.146C17.506,165.656,16.923,168.074,15.733,168.083z
	 M18.221,161.944c-0.201,0.413-0.68,0.212-0.939,0.187c-1.568-0.155-2.953-1.23-4.438-3.903c-0.521-0.938-1.149-2.447-1.43-2.468
	c-0.334-0.028-0.579,0.954-0.827,1.464c-0.292,0.6-0.567,1.123-0.801,1.607c-0.793-2.693-1.856-7.423-2.048-10.021
	c-0.2-2.752,1.104-3.287,0.856-6.106c-0.247-2.822-1.091-5.593-1.58-9.245c0.018-2.567,1.561-1.512,2.349,0.405
	c0.656,2.38,1.306,4.887,1.975,6.996c-0.397-2.667-1.071-5.063-1.611-6.923c1.336-0.293,2.428,5.194,3.59,8.993
	c-0.292-2.331-1.003-4.833-1.521-6.65c1.127-0.107,2.071,4.161,3.053,7.507c-0.189-1.573-0.792-3.77-0.997-4.872
	c1.171,1.44,2.494,5.32,3.432,9.604c0.138,0.628,0.271,1.283,0.413,2.089C18.418,154.722,18.79,160.779,18.221,161.944z"/>
<linearGradient id="XMLID_15_" gradientUnits="userSpaceOnUse" x1="116.3223" y1="116.3843" x2="233.4453" y2="100.6309">
	<stop  offset="0" style="stop-color:#FFFFFF"/>
	<stop  offset="0.4052" style="stop-color:#FDFEFE"/>
	<stop  offset="0.5512" style="stop-color:#F6F9F9"/>
	<stop  offset="0.6552" style="stop-color:#EBF0F0"/>
	<stop  offset="0.7394" style="stop-color:#DAE4E3"/>
	<stop  offset="0.8115" style="stop-color:#C4D4D3"/>
	<stop  offset="0.8753" style="stop-color:#A8C0BF"/>
	<stop  offset="0.933" style="stop-color:#88A8A7"/>
	<stop  offset="0.9844" style="stop-color:#648D8C"/>
	<stop  offset="1" style="stop-color:#578483"/>
</linearGradient>
<path fill="url(#XMLID_15_)" d="M181.818,104.999c3.709,4.062,2.196,6.854,2.196,6.854l-4.197,5.191l4.049-0.78l-1.635,1.902
	l1.418,0.627l-3.445,2.249l4.189-0.221l-0.971,2.269c-0.99,0.941-4.313,0.878-4.313,0.878l-0.857,4.925
	c1.593,0.527,5.809-1.792,5.809-1.792c-1.705,3.225-6.883,7.591-6.883,7.591c13.229-3.389,11.643-16.95,11.643-16.95
	C188.759,109.231,181.818,104.999,181.818,104.999z M118.189,52.21l65.016,119.102l33.463-107.95L118.189,52.21z M153.174,97.251
	c0.599,0.031,12.617-0.31,12.617-0.31l-8.989-15.352l13.764,8.288l6.981-28.044l6.187,26.787l12.818-2.25
	c0,0-7.989,11.163-7.697,11.301c0.293,0.138,9.598,1.969,9.598,1.969l-11.705,7.041c-1.282-1.406-2.771-2.544-4.423-3.316
	c0.049-0.174,0.081-0.355,0.092-0.546c0.061-1.142-0.65-2.107-1.587-2.157l-3.147-0.166c-2.467-5.466,2.607-7.91,2.607-7.91
	l-0.54-1.126c-4.644,2.974-4.063,6.752-3.13,8.98l-1.773-0.095c-0.936-0.049-1.743,0.837-1.804,1.979
	c-0.011,0.19,0.002,0.375,0.032,0.551c-2.398,0.828-4.563,2.382-6.33,4.448C163.194,104.782,152.675,97.224,153.174,97.251z
	 M189.589,119.881c-0.472,8.944-6.453,15.9-13.358,15.535c-6.905-0.364-12.119-7.911-11.647-16.855
	c0.378-7.158,4.285-13.038,9.37-14.916c-0.024-0.16-0.036-0.327-0.026-0.499c0.055-1.034,0.746-1.839,1.543-1.797l1.516,0.081
	l0.904,0.047l2.685,0.143c0.799,0.041,1.403,0.914,1.349,1.948c-0.01,0.172-0.039,0.338-0.081,0.493
	C186.7,106.464,189.969,112.723,189.589,119.881z"/>
<linearGradient id="XMLID_16_" gradientUnits="userSpaceOnUse" x1="12.0259" y1="175.5947" x2="106.0259" y2="259.998">
	<stop  offset="0" style="stop-color:#FFFFFF"/>
	<stop  offset="0.1814" style="stop-color:#FFFCFC"/>
	<stop  offset="0.3261" style="stop-color:#FEF3F2"/>
	<stop  offset="0.4581" style="stop-color:#FDE3E1"/>
	<stop  offset="0.5826" style="stop-color:#FBCDC9"/>
	<stop  offset="0.7018" style="stop-color:#F8B0AB"/>
	<stop  offset="0.817" style="stop-color:#F58C85"/>
	<stop  offset="0.927" style="stop-color:#F26359"/>
	<stop  offset="1" style="stop-color:#EF4438"/>
</linearGradient>
<path fill="url(#XMLID_16_)" d="M42.02,175.718L2.461,193.813l106.676,62.719L42.02,175.718z M77.081,232.378
	c-3.106-1.491-6.495-3.49-9.688-5.644c-20.663-10.649-35.368-24.866-35.368-24.866c3.083,2.726,15.496,9.772,15.496,9.772
	c-28.051-21.248-14.407-22.175-14.407-22.175c-1.167,3.489,17.459,17.566,17.459,17.566c-3.97-3.772,1.325-5.124,1.325-5.124
	c-0.938,3.625,11.245,12.845,18.456,17.932c5.509,3.481,10.776,7.647,13.463,10.819
	C87.724,235.269,84.703,236.035,77.081,232.378z M78.886,227.443c-2.143-1.878-5.173-3.849-7.89-5.229
	c-3.873-2.229-10.977-6.631-12.93-9.971c0,0,0.023,2.607,2.727,4.662c0,0-10.617-6.607-12.437-9.855
	c0,0-1.39,4.574,14.625,14.565c0,0-5.748-2.447-7.731-3.872c0,0,10.168,7.832,19.129,10.995c1.662,0.907,3.264,1.638,4.539,2.02
	C82.066,231.7,82.054,230.218,78.886,227.443z"/>
<linearGradient id="XMLID_17_" gradientUnits="userSpaceOnUse" x1="152.5117" y1="62.5923" x2="169.7119" y2="23.9116">
	<stop  offset="0" style="stop-color:#FFFFFF"/>
	<stop  offset="0.4052" style="stop-color:#FDFEFE"/>
	<stop  offset="0.5512" style="stop-color:#F6F9F9"/>
	<stop  offset="0.6552" style="stop-color:#EBF0F0"/>
	<stop  offset="0.7394" style="stop-color:#DAE4E3"/>
	<stop  offset="0.8115" style="stop-color:#C4D4D3"/>
	<stop  offset="0.8753" style="stop-color:#A8C0BF"/>
	<stop  offset="0.933" style="stop-color:#88A8A7"/>
	<stop  offset="0.9844" style="stop-color:#648D8C"/>
	<stop  offset="1" style="stop-color:#578483"/>
</linearGradient>
<path fill="url(#XMLID_17_)" d="M113.322,0l0.234,48.694l107.087,11.404L113.322,0z M139.796,45.338l-5.968,2.383l-6.685-6.214
	l-6.617,0.965l0.826-7.163l6.781-0.139l5.692,9.759l6.588-1.761l3.446,4.344L139.796,45.338z M157.323,46.971l-21.026-12.636
	l-18.915-0.09l0.478-12.28l11.254,0.904l-4.506-4.189l-6.618,0.964l0.827-7.162l6.78-0.139l5.693,9.758l6.588-1.76l3.445,4.344
	l-4.063-2.174l-2.11,0.842l2.314,0.186l19.104,18.557l18.613-1.309l11.148,8.506l-12.356-4.882L157.323,46.971z"/>
<linearGradient id="XMLID_18_" gradientUnits="userSpaceOnUse" x1="58.2432" y1="86.7495" x2="54.031" y2="3.3643">
	<stop  offset="0" style="stop-color:#FFFFFF"/>
	<stop  offset="0.4052" style="stop-color:#FDFEFE"/>
	<stop  offset="0.5512" style="stop-color:#F6F9F9"/>
	<stop  offset="0.6552" style="stop-color:#EBF0F0"/>
	<stop  offset="0.7394" style="stop-color:#DAE4E3"/>
	<stop  offset="0.8115" style="stop-color:#C4D4D3"/>
	<stop  offset="0.8753" style="stop-color:#A8C0BF"/>
	<stop  offset="0.933" style="stop-color:#88A8A7"/>
	<stop  offset="0.9844" style="stop-color:#648D8C"/>
	<stop  offset="1" style="stop-color:#578483"/>
</linearGradient>
<path fill="url(#XMLID_18_)" d="M109.086,0.022L1.673,60.099l107.886-11.383L109.086,0.022z M46.97,48.313l5.627-5.567
	l-21.506,9.929L49.59,40.615L35.283,46.89c0,0,28.795-18.04,43.827-26.444c15.034-8.402,21.23,9.415,21.23,9.415
	c-6.774-9.337-19.871-1.401-19.871-1.401L46.97,48.313z M84.923,27.646c0,0-4.776,7.767,3.672,10.873
	C88.595,38.52,77.129,37.231,84.923,27.646z M85.17,29.177c1.677-3.028,6.245-4.114,10.205-2.431
	c3.958,1.686,5.808,5.505,4.131,8.532c-1.678,3.026-6.248,4.115-10.206,2.43C85.341,36.023,83.492,32.203,85.17,29.177z
	 M102.836,36.621c-3.149,9.253-12.72,2.134-12.72,2.134s6.378,2.141,9.765-2.848c3.386-4.989-1.544-11.125-1.544-11.125
	S105.985,27.368,102.836,36.621z"/>
</svg>
