<svg  version="1.1" xmlns="http://www.w3.org/2000/svg" viewBox="0 0 681.645 222.254" xml:space="preserve">
<linearGradient id="XMLID_22_" gradientUnits="userSpaceOnUse" x1="79.583" y1="76.2695" x2="58.8884" y2="80.5697">
	<stop  offset="0" style="stop-color:#FFFFFF"/>
	<stop  offset="0.2074" style="stop-color:#FCFDFD"/>
	<stop  offset="0.3629" style="stop-color:#F2F6F6"/>
	<stop  offset="0.5014" style="stop-color:#E2EAEA"/>
	<stop  offset="0.63" style="stop-color:#CBD9D9"/>
	<stop  offset="0.7518" style="stop-color:#AEC4C3"/>
	<stop  offset="0.8686" style="stop-color:#8AA9A9"/>
	<stop  offset="0.9793" style="stop-color:#608A89"/>
	<stop  offset="1" style="stop-color:#578483"/>
</linearGradient>
<path fill="url(#XMLID_22_)" d="M69.718,70.631c0,0,11.624,2.887,4.19,12.325c-7.434,9.438-20.679-3.886-20.679-3.886
	S58.636,73.407,69.718,70.631z"/>
<linearGradient id="XMLID_23_" gradientUnits="userSpaceOnUse" x1="64.5845" y1="85.188" x2="54.7175" y2="74.815">
	<stop  offset="0" style="stop-color:#FFFFFF"/>
	<stop  offset="0.2074" style="stop-color:#FCFDFD"/>
	<stop  offset="0.3629" style="stop-color:#F2F6F6"/>
	<stop  offset="0.5014" style="stop-color:#E2EAEA"/>
	<stop  offset="0.63" style="stop-color:#CBD9D9"/>
	<stop  offset="0.7518" style="stop-color:#AEC4C3"/>
	<stop  offset="0.8686" style="stop-color:#8AA9A9"/>
	<stop  offset="0.9793" style="stop-color:#608A89"/>
	<stop  offset="1" style="stop-color:#578483"/>
</linearGradient>
<path fill="url(#XMLID_23_)" d="M59.514,74.684l3.311,2.831c0,0-3.041,8.772,7.839,8.05c0,0-3.514,2.165-9.19-0.611
	c0,0-7.705-4.22-8.245-5.885C53.229,79.07,57.081,75.517,59.514,74.684z"/>
<path fill="#FFFFFF" d="M69.988,70.52L23.496,46.759c0,0-41.627,23.539-9.731,51.963c31.896,28.425,25.409,21.763,25.409,21.763
	S35.389,80.514,69.988,70.52z"/>
<linearGradient id="XMLID_24_" gradientUnits="userSpaceOnUse" x1="47.3936" y1="124.2979" x2="31.0458" y2="104.0359" gradientTransform="matrix(1 0 0 1 -5.999 6)">
	<stop  offset="0" style="stop-color:#FFFFFF"/>
	<stop  offset="0.4895" style="stop-color:#A5BDBD"/>
	<stop  offset="0.8345" style="stop-color:#6D9493"/>
	<stop  offset="1" style="stop-color:#578483"/>
</linearGradient>
<path fill="url(#XMLID_24_)" d="M69.763,117.094C41.989,92.487,42.732,95.33,42.732,95.33s-6.178,17.646-3.268,26.335
	c-3.737,9.712-11.213,19.38-25.925,23.63l46.493,23.762C60.032,169.057,101.76,145.44,69.763,117.094z"/>
<linearGradient id="XMLID_25_" gradientUnits="userSpaceOnUse" x1="59.0601" y1="126.2427" x2="20.5916" y2="176.9833">
	<stop  offset="0" style="stop-color:#FFFFFF"/>
	<stop  offset="0.1089" style="stop-color:#F8F9F9"/>
	<stop  offset="0.2628" style="stop-color:#E6E7E7"/>
	<stop  offset="0.4436" style="stop-color:#C8CACA"/>
	<stop  offset="0.6449" style="stop-color:#9DA1A1"/>
	<stop  offset="0.8604" style="stop-color:#686E6E"/>
	<stop  offset="1" style="stop-color:#414949"/>
</linearGradient>
<path fill="url(#XMLID_25_)" d="M14.08,145.295l46.493,23.762c0,0,41.728-23.617,9.731-51.963
	C42.53,92.487,43.273,95.33,43.273,95.33S48.679,135.303,14.08,145.295z"/>
<linearGradient id="XMLID_26_" gradientUnits="userSpaceOnUse" x1="71.2095" y1="159.5259" x2="62.9995" y2="149.8671">
	<stop  offset="0" style="stop-color:#FFFFFF"/>
	<stop  offset="0.1977" style="stop-color:#FCFCFC"/>
	<stop  offset="0.3458" style="stop-color:#F2F3F3"/>
	<stop  offset="0.4779" style="stop-color:#E2E3E3"/>
	<stop  offset="0.6005" style="stop-color:#CBCECE"/>
	<stop  offset="0.7166" style="stop-color:#AEB1B1"/>
	<stop  offset="0.8279" style="stop-color:#8A8F8F"/>
	<stop  offset="0.9333" style="stop-color:#606666"/>
	<stop  offset="1" style="stop-color:#414949"/>
</linearGradient>
<path fill="url(#XMLID_26_)" d="M72.404,152.838c0,0,4.406,4.615-1.201,11.123l-9.241-7.219
	C61.962,156.743,65.126,152.772,72.404,152.838z"/>
<path fill="#FFFFFF" d="M72.918,153.063l-59.051-25.583c0,0-14.817-0.081-13.819,15.558l60.165,25.604
	C60.213,168.641,56.562,154.252,72.918,153.063z"/>
<path fill="none" d="M516.219,126.492l3.662,9.032c-0.413,0.012-0.858,0.137-1.329,0.426c-2.493,1.529-3.116,3.191-4.562,2.34
	l-0.771,3.779c0,0,2.522,0.9,5.196-2.832c2.673-3.73,4.417-1.736,4.417-1.736s-0.752-1.287-1.957-1.781l-4.283-10.975
	L516.219,126.492z"/>
<linearGradient id="XMLID_27_" gradientUnits="userSpaceOnUse" x1="118.4893" y1="255.1646" x2="119.9892" y2="-13.3218">
	<stop  offset="0" style="stop-color:#FFFFFF"/>
	<stop  offset="0.4052" style="stop-color:#FDFEFE"/>
	<stop  offset="0.5512" style="stop-color:#F6F9F9"/>
	<stop  offset="0.6552" style="stop-color:#EBF0F0"/>
	<stop  offset="0.7394" style="stop-color:#DAE4E3"/>
	<stop  offset="0.8115" style="stop-color:#C4D4D3"/>
	<stop  offset="0.8753" style="stop-color:#A8C0BF"/>
	<stop  offset="0.933" style="stop-color:#88A8A7"/>
	<stop  offset="0.9844" style="stop-color:#648D8C"/>
	<stop  offset="1" style="stop-color:#578483"/>
</linearGradient>
<path fill="url(#XMLID_27_)" d="M149.044,155.395c0.479,0.48,0.64,1.121,0,1.92c-4,4.961-15.2,12.32-27.04,12.32
	c-10.88,0-19.52-2.879-25.6-10.559c-6.08-7.682-7.68-14.08-7.68-22.08c0-10.081,3.84-21.281,11.84-28.641
	c6.72-6.08,14.4-9.279,23.36-9.279c18.561,0,22.721,9.6,22.721,14.399c0,3.84-2.561,7.04-7.041,7.04c-5.439,0-8-3.84-9.6-8
	c-2.24-5.439-5.76-6.559-9.92-6.559c-6.4,0-14.4,7.199-14.4,18.559c0,9.6,0.32,16.161,6.24,25.92
	c4.32,7.039,11.36,8.641,16.48,8.641c8,0,12.959-2.721,17.28-6.08c0.32-0.32,0.961-0.32,1.44,0.16L149.044,155.395z"/>
<linearGradient id="XMLID_28_" gradientUnits="userSpaceOnUse" x1="182.3696" y1="255.52" x2="183.8696" y2="-12.9605">
	<stop  offset="0" style="stop-color:#FFFFFF"/>
	<stop  offset="0.4052" style="stop-color:#FDFEFE"/>
	<stop  offset="0.5512" style="stop-color:#F6F9F9"/>
	<stop  offset="0.6552" style="stop-color:#EBF0F0"/>
	<stop  offset="0.7394" style="stop-color:#DAE4E3"/>
	<stop  offset="0.8115" style="stop-color:#C4D4D3"/>
	<stop  offset="0.8753" style="stop-color:#A8C0BF"/>
	<stop  offset="0.933" style="stop-color:#88A8A7"/>
	<stop  offset="0.9844" style="stop-color:#648D8C"/>
	<stop  offset="1" style="stop-color:#578483"/>
</linearGradient>
<path fill="url(#XMLID_28_)" d="M166.645,126.596c0-7.359-1.281-9.92-6.08-12.479l-2.881-1.601
	c-0.959-0.319-1.279-0.64-1.279-1.279v-0.961c0-0.64,0.32-0.96,1.279-1.439l19.36-9.119c0.96-0.32,1.601-0.641,2.56-0.641
	c0.961,0,1.28,0.961,1.44,1.92l1.44,11.52h0.64c5.44-8.959,12.16-14.398,19.2-14.398c5.119,0,8.32,3.52,8.32,8
	c0,4.479-4.48,8.639-8.641,8.639c-2.24,0-4.16-0.64-5.439-1.28c-1.28-0.96-2.881-1.279-4.48-1.279c-1.92,0-4.8,1.279-6.721,4.64
	c-1.279,2.24-1.92,5.76-1.92,7.84v30.879c0,5.121,1.281,6.721,4.48,6.721h7.04c0.96,0,1.28,0.32,1.28,1.119v3.682
	c0,0.799-0.32,1.119-1.12,1.119c-1.12,0-8.16-0.48-19.84-0.48c-11.2,0-17.44,0.48-18.72,0.48c-0.801,0-1.121-0.32-1.121-1.119
	v-3.521c0-0.959,0.32-1.279,1.44-1.279h5.601c2.56,0,4.16-1.279,4.16-4.32V126.596z"/>
<linearGradient id="XMLID_29_" gradientUnits="userSpaceOnUse" x1="249.479" y1="255.897" x2="250.979" y2="-12.5872">
	<stop  offset="0" style="stop-color:#FFFFFF"/>
	<stop  offset="0.4052" style="stop-color:#FDFEFE"/>
	<stop  offset="0.5512" style="stop-color:#F6F9F9"/>
	<stop  offset="0.6552" style="stop-color:#EBF0F0"/>
	<stop  offset="0.7394" style="stop-color:#DAE4E3"/>
	<stop  offset="0.8115" style="stop-color:#C4D4D3"/>
	<stop  offset="0.8753" style="stop-color:#A8C0BF"/>
	<stop  offset="0.933" style="stop-color:#88A8A7"/>
	<stop  offset="0.9844" style="stop-color:#648D8C"/>
	<stop  offset="1" style="stop-color:#578483"/>
</linearGradient>
<path fill="url(#XMLID_29_)" d="M274.803,108.516c7.52,7.521,11.039,15.84,11.039,25.28c0,8.961-3.84,17.6-9.92,24.32
	c-6.56,7.359-16.16,11.52-26.879,11.52c-10.08,0-18.721-2.879-25.921-11.52c-7.04-8.32-8.64-15.039-8.64-24.801
	c0-7.679,3.84-18.879,13.439-26.559c7.84-6.4,16.16-7.68,22.721-7.68C261.363,99.076,269.363,103.236,274.803,108.516z
	 M266.323,133.315c0-17.599-9.279-27.838-16.641-27.838c-4.159,0-7.359,1.279-10.08,4.319c-4.959,5.6-6.879,12.32-6.879,24
	c0,9.281,0.64,15.361,4.959,22.24c2.721,4.32,6.24,6.881,12.641,6.881C260.883,162.917,266.323,149.635,266.323,133.315z"/>
<linearGradient id="XMLID_30_" gradientUnits="userSpaceOnUse" x1="313.2124" y1="256.2524" x2="314.7124" y2="-12.2325">
	<stop  offset="0" style="stop-color:#FFFFFF"/>
	<stop  offset="0.4052" style="stop-color:#FDFEFE"/>
	<stop  offset="0.5512" style="stop-color:#F6F9F9"/>
	<stop  offset="0.6552" style="stop-color:#EBF0F0"/>
	<stop  offset="0.7394" style="stop-color:#DAE4E3"/>
	<stop  offset="0.8115" style="stop-color:#C4D4D3"/>
	<stop  offset="0.8753" style="stop-color:#A8C0BF"/>
	<stop  offset="0.933" style="stop-color:#88A8A7"/>
	<stop  offset="0.9844" style="stop-color:#648D8C"/>
	<stop  offset="1" style="stop-color:#578483"/>
</linearGradient>
<path fill="url(#XMLID_30_)" d="M305.842,106.436c0-11.199-0.32-24.959-0.641-29.119c-0.32-5.439-3.039-8-8.16-9.6l-3.199-0.961
	c-0.961-0.32-0.961-0.639-0.961-1.279v-1.92c0-0.32,0.32-0.961,1.281-1.279c6.399-1.922,18.88-6.08,24-9.281
	c1.92-0.641,2.881-0.96,3.52-0.96c0.961,0,1.6,0.64,1.6,2.88c-0.318,8.64-0.639,41.919-0.639,50.72v23.04
	c0,7.359,0,23.68,0.32,28.48c0.318,2.879,0.639,5.119,4.159,5.119h6.08c1.6,0,1.92,0.32,1.92,1.439v2.881
	c0,0.959-0.32,1.6-0.961,1.6c-1.279,0-8.32-0.48-19.519-0.48c-12.161,0-18.56,0.48-19.84,0.48c-0.96,0-1.28-0.641-1.28-1.6v-3.041
	c0-0.959,0.32-1.279,2.24-1.279h6.08c1.6,0,4-1.279,4-5.76v-43.84V106.436z"/>
<linearGradient id="XMLID_31_" gradientUnits="userSpaceOnUse" x1="358.0088" y1="256.5044" x2="359.5088" y2="-11.9829">
	<stop  offset="0" style="stop-color:#FFFFFF"/>
	<stop  offset="0.4052" style="stop-color:#FDFEFE"/>
	<stop  offset="0.5512" style="stop-color:#F6F9F9"/>
	<stop  offset="0.6552" style="stop-color:#EBF0F0"/>
	<stop  offset="0.7394" style="stop-color:#DAE4E3"/>
	<stop  offset="0.8115" style="stop-color:#C4D4D3"/>
	<stop  offset="0.8753" style="stop-color:#A8C0BF"/>
	<stop  offset="0.933" style="stop-color:#88A8A7"/>
	<stop  offset="0.9844" style="stop-color:#648D8C"/>
	<stop  offset="1" style="stop-color:#578483"/>
</linearGradient>
<path fill="url(#XMLID_31_)" d="M350.64,106.436c0-11.199-0.32-24.959-0.64-29.119c-0.32-5.439-3.04-8-8.16-9.6l-3.2-0.961
	c-0.96-0.32-0.96-0.639-0.96-1.279v-1.92c0-0.32,0.32-0.961,1.28-1.279c6.4-1.922,18.88-6.08,24-9.281
	c1.92-0.641,2.88-0.96,3.52-0.96c0.961,0,1.601,0.64,1.601,2.88c-0.32,8.64-0.64,41.919-0.64,50.72v23.04
	c0,7.359,0,23.68,0.319,28.48c0.32,2.879,0.64,5.119,4.16,5.119H378c1.6,0,1.92,0.32,1.92,1.439v2.881c0,0.959-0.32,1.6-0.96,1.6
	c-1.28,0-8.32-0.48-19.52-0.48c-12.16,0-18.561,0.48-19.841,0.48c-0.96,0-1.28-0.641-1.28-1.6v-3.041
	c0-0.959,0.32-1.279,2.24-1.279h6.08c1.6,0,4-1.279,4-5.76v-43.84V106.436z"/>
<linearGradient id="XMLID_32_" gradientUnits="userSpaceOnUse" x1="573.3994" y1="257.8579" x2="574.8994" y2="-10.627">
	<stop  offset="0" style="stop-color:#FFFFFF"/>
	<stop  offset="0.4052" style="stop-color:#FDFEFE"/>
	<stop  offset="0.5512" style="stop-color:#F6F9F9"/>
	<stop  offset="0.6552" style="stop-color:#EBF0F0"/>
	<stop  offset="0.7394" style="stop-color:#DAE4E3"/>
	<stop  offset="0.8115" style="stop-color:#C4D4D3"/>
	<stop  offset="0.8753" style="stop-color:#A8C0BF"/>
	<stop  offset="0.933" style="stop-color:#88A8A7"/>
	<stop  offset="0.9844" style="stop-color:#648D8C"/>
	<stop  offset="1" style="stop-color:#578483"/>
</linearGradient>
<path fill="url(#XMLID_32_)" d="M566.037,106.436c0-11.199-0.319-24.959-0.64-29.119c-0.32-5.439-3.04-8-8.16-9.6l-3.2-0.961
	c-0.96-0.32-0.96-0.639-0.96-1.279v-1.92c0-0.32,0.32-0.961,1.28-1.279c6.399-1.922,18.88-6.08,24-9.281
	c1.92-0.641,2.88-0.96,3.521-0.96c0.959,0,1.6,0.64,1.6,2.88c-0.32,8.64-0.641,41.919-0.641,50.72v23.04
	c0,7.359,0,23.68,0.32,28.48c0.32,2.879,0.641,5.119,4.16,5.119h6.08c1.6,0,1.92,0.32,1.92,1.439v2.881c0,0.959-0.32,1.6-0.96,1.6
	c-1.28,0-8.32-0.48-19.521-0.48c-12.16,0-18.56,0.48-19.84,0.48c-0.96,0-1.279-0.641-1.279-1.6v-3.041
	c0-0.959,0.319-1.279,2.24-1.279h6.079c1.601,0,4-1.279,4-5.76v-43.84V106.436z"/>
<linearGradient id="XMLID_33_" gradientUnits="userSpaceOnUse" x1="631.3535" y1="258.1802" x2="632.8535" y2="-10.3083">
	<stop  offset="0" style="stop-color:#FFFFFF"/>
	<stop  offset="0.4052" style="stop-color:#FDFEFE"/>
	<stop  offset="0.5512" style="stop-color:#F6F9F9"/>
	<stop  offset="0.6552" style="stop-color:#EBF0F0"/>
	<stop  offset="0.7394" style="stop-color:#DAE4E3"/>
	<stop  offset="0.8115" style="stop-color:#C4D4D3"/>
	<stop  offset="0.8753" style="stop-color:#A8C0BF"/>
	<stop  offset="0.933" style="stop-color:#88A8A7"/>
	<stop  offset="0.9844" style="stop-color:#648D8C"/>
	<stop  offset="1" style="stop-color:#578483"/>
</linearGradient>
<path fill="url(#XMLID_33_)" d="M617.716,132.196c0,16.32,11.681,25.92,20.801,25.92c9.92,0,16-4.16,19.359-9.279
	c0.641-1.121,1.28-1.121,1.92-0.801l2.4,1.439c0.801,0.48,1.12,1.121,0,3.201c-3.359,6.08-11.52,16.959-29.119,16.959
	c-10.24,0-17.44-2.24-23.041-8.639c-7.359-8.48-8.959-16.48-8.959-26.4c0-8.8,0.959-14.72,7.84-23.68
	c6.72-8.641,13.92-11.84,27.84-11.84c18.24,0,24.16,19.04,24.16,25.6c0,2.4-1.601,2.561-4.48,2.561h-38.721V132.196z
	 M637.557,121.476c3.36,0,5.28-0.96,5.28-2.239c0-4.801-1.601-14.24-9.92-14.24c-7.84,0-12.641,5.76-14.721,16.479H637.557z"/>
<linearGradient id="XMLID_34_" gradientUnits="userSpaceOnUse" x1="484.627" y1="251.1782" x2="486.1269" y2="-17.3065" gradientTransform="matrix(1 0 0 1 -5.999 6)">
	<stop  offset="0" style="stop-color:#FFFFFF"/>
	<stop  offset="0.4052" style="stop-color:#FDFEFE"/>
	<stop  offset="0.5512" style="stop-color:#F6F9F9"/>
	<stop  offset="0.6552" style="stop-color:#EBF0F0"/>
	<stop  offset="0.7394" style="stop-color:#DAE4E3"/>
	<stop  offset="0.8115" style="stop-color:#C4D4D3"/>
	<stop  offset="0.8753" style="stop-color:#A8C0BF"/>
	<stop  offset="0.933" style="stop-color:#88A8A7"/>
	<stop  offset="0.9844" style="stop-color:#648D8C"/>
	<stop  offset="1" style="stop-color:#578483"/>
</linearGradient>
<path fill="url(#XMLID_34_)" d="M568.683,180.577c-3.166-12.916-21.5-15.5-24.666,8.666
	c-12.168,50.668-48.568-1.293-48.568-1.293c-2.398-2.24-22.639-46.641-23.6-48.24c-1.279-1.92-11.199-16.96-13.119-19.521
	c-2.24-2.88-5.121-5.76-9.6-7.359v-0.641c17.6-2.88,29.76-11.198,29.76-31.358c0-6.08-2.881-12.801-8.641-17.92
	c-6.4-5.76-16.32-10.081-29.119-10.081c-4.801,0-19.521,0.479-28.48,0.479c-15.68,0-20.801-0.479-21.92-0.479
	c-0.801,0-1.121,0.32-1.121,1.12v4.32c0,0.641,0.32,0.959,1.121,0.959h6.24c2.879,0,5.119,2.561,5.119,8v42.08
	c0,15.04,0,30.081-0.32,46.081c0,4.32-2.559,5.279-6.08,5.279h-5.439c-0.641,0-0.959,0.48-0.959,1.281v3.68
	c0,0.959,0.318,1.439,1.279,1.439c1.6,0,5.439-0.48,21.119-0.48c16.641,0,19.84,0.48,21.92,0.48c1.281,0,1.762-0.32,1.762-1.439
	v-3.84c0-0.641-0.32-1.121-1.281-1.121h-8c-2.561,0-3.68-2.879-4.16-6.08c-0.32-2.4-0.639-20.32-0.639-29.919v-8.64
	c1.76-0.16,4.479-0.32,5.119-0.32c6.721,0,10.4,4.32,14.4,9.92c2.561,3.52,7.039,10.879,8.641,13.76
	c1.362,2.422,15.977,39.729,19.981,47.523l-0.083-0.002c1.578,2.945,23.754,44.051,64,33.666
	C574.683,209.911,569.159,182.518,568.683,180.577z M427.688,110.909c-1.92,0-3.84-0.32-6.08-0.641l0.32-46.079
	c0-1.92,0.641-3.84,1.92-4.641c1.281-0.799,3.201-0.959,5.76-0.959c8,0,15.361,1.76,21.121,6.879
	c4,3.682,7.039,10.561,7.039,17.92C457.769,90.75,452.649,110.909,427.688,110.909z"/>
<linearGradient id="XMLID_35_" gradientUnits="userSpaceOnUse" x1="538.9189" y1="120.4468" x2="520.0689" y2="93.876">
	<stop  offset="0" style="stop-color:#FFFFFF"/>
	<stop  offset="0.4052" style="stop-color:#FDFEFE"/>
	<stop  offset="0.5512" style="stop-color:#F6F9F9"/>
	<stop  offset="0.6552" style="stop-color:#EBF0F0"/>
	<stop  offset="0.7394" style="stop-color:#DAE4E3"/>
	<stop  offset="0.8115" style="stop-color:#C4D4D3"/>
	<stop  offset="0.8753" style="stop-color:#A8C0BF"/>
	<stop  offset="0.933" style="stop-color:#88A8A7"/>
	<stop  offset="0.9844" style="stop-color:#648D8C"/>
	<stop  offset="1" style="stop-color:#578483"/>
</linearGradient>
<polygon fill="url(#XMLID_35_)" points="547.858,113.856 518.339,97.327 518.403,110.72 	"/>
<linearGradient id="XMLID_36_" gradientUnits="userSpaceOnUse" x1="524.9512" y1="130.3198" x2="549.3346" y2="132.5369">
	<stop  offset="0" style="stop-color:#FFFFFF"/>
	<stop  offset="0.4052" style="stop-color:#FDFEFE"/>
	<stop  offset="0.5512" style="stop-color:#F6F9F9"/>
	<stop  offset="0.6552" style="stop-color:#EBF0F0"/>
	<stop  offset="0.7394" style="stop-color:#DAE4E3"/>
	<stop  offset="0.8115" style="stop-color:#C4D4D3"/>
	<stop  offset="0.8753" style="stop-color:#A8C0BF"/>
	<stop  offset="0.933" style="stop-color:#88A8A7"/>
	<stop  offset="0.9844" style="stop-color:#648D8C"/>
	<stop  offset="1" style="stop-color:#578483"/>
</linearGradient>
<polygon fill="url(#XMLID_36_)" points="538.256,144.678 548.182,149.999 548.182,114.866 	"/>
<linearGradient id="XMLID_37_" gradientUnits="userSpaceOnUse" x1="512.7305" y1="143.0103" x2="501.5857" y2="160.7406">
	<stop  offset="0" style="stop-color:#FFFFFF"/>
	<stop  offset="0.4052" style="stop-color:#FDFEFE"/>
	<stop  offset="0.5512" style="stop-color:#F6F9F9"/>
	<stop  offset="0.6552" style="stop-color:#EBF0F0"/>
	<stop  offset="0.7394" style="stop-color:#DAE4E3"/>
	<stop  offset="0.8115" style="stop-color:#C4D4D3"/>
	<stop  offset="0.8753" style="stop-color:#A8C0BF"/>
	<stop  offset="0.933" style="stop-color:#88A8A7"/>
	<stop  offset="0.9844" style="stop-color:#648D8C"/>
	<stop  offset="1" style="stop-color:#578483"/>
</linearGradient>
<polygon fill="url(#XMLID_37_)" points="487.846,150.635 517.188,167.887 498.727,145.659 	"/>
<path fill="#FFFFFF" d="M516.456,111.645l-28.265,3.168l10.881,29.692L516.456,111.645z"/>
<linearGradient id="XMLID_38_" gradientUnits="userSpaceOnUse" x1="519.6777" y1="128.0664" x2="546.7646" y2="128.0664">
	<stop  offset="0" style="stop-color:#FFFFFF"/>
	<stop  offset="0.4052" style="stop-color:#FDFEFE"/>
	<stop  offset="0.5512" style="stop-color:#F6F9F9"/>
	<stop  offset="0.6552" style="stop-color:#EBF0F0"/>
	<stop  offset="0.7394" style="stop-color:#DAE4E3"/>
	<stop  offset="0.8115" style="stop-color:#C4D4D3"/>
	<stop  offset="0.8753" style="stop-color:#A8C0BF"/>
	<stop  offset="0.933" style="stop-color:#88A8A7"/>
	<stop  offset="0.9844" style="stop-color:#648D8C"/>
	<stop  offset="1" style="stop-color:#578483"/>
</linearGradient>
<path fill="url(#XMLID_38_)" d="M546.765,114.754l-27.087-3.067l17.883,32.759L546.765,114.754z"/>
<linearGradient id="XMLID_39_" gradientUnits="userSpaceOnUse" x1="517.8945" y1="135.8521" x2="518.7759" y2="164.2883">
	<stop  offset="0" style="stop-color:#FFFFFF"/>
	<stop  offset="0.4052" style="stop-color:#FDFEFE"/>
	<stop  offset="0.5512" style="stop-color:#F6F9F9"/>
	<stop  offset="0.6552" style="stop-color:#EBF0F0"/>
	<stop  offset="0.7394" style="stop-color:#DAE4E3"/>
	<stop  offset="0.8115" style="stop-color:#C4D4D3"/>
	<stop  offset="0.8753" style="stop-color:#A8C0BF"/>
	<stop  offset="0.933" style="stop-color:#88A8A7"/>
	<stop  offset="0.9844" style="stop-color:#648D8C"/>
	<stop  offset="1" style="stop-color:#578483"/>
</linearGradient>
<path fill="url(#XMLID_39_)" d="M499.746,145.208l18.143,22.436l18.736-22.385L499.746,145.208z"/>
<linearGradient id="XMLID_40_" gradientUnits="userSpaceOnUse" x1="499.9658" y1="128.0361" x2="480.2471" y2="134.905">
	<stop  offset="0" style="stop-color:#FFFFFF"/>
	<stop  offset="0.4052" style="stop-color:#FDFEFE"/>
	<stop  offset="0.5512" style="stop-color:#F6F9F9"/>
	<stop  offset="0.6552" style="stop-color:#EBF0F0"/>
	<stop  offset="0.7394" style="stop-color:#DAE4E3"/>
	<stop  offset="0.8115" style="stop-color:#C4D4D3"/>
	<stop  offset="0.8753" style="stop-color:#A8C0BF"/>
	<stop  offset="0.933" style="stop-color:#88A8A7"/>
	<stop  offset="0.9844" style="stop-color:#648D8C"/>
	<stop  offset="1" style="stop-color:#578483"/>
</linearGradient>
<polygon fill="url(#XMLID_40_)" points="487.169,115.117 487.17,149.87 498.262,144.735 	"/>
<linearGradient id="XMLID_41_" gradientUnits="userSpaceOnUse" x1="503.1895" y1="121.187" x2="502.0309" y2="98.2516">
	<stop  offset="0" style="stop-color:#FFFFFF"/>
	<stop  offset="0.4052" style="stop-color:#FDFEFE"/>
	<stop  offset="0.5512" style="stop-color:#F6F9F9"/>
	<stop  offset="0.6552" style="stop-color:#EBF0F0"/>
	<stop  offset="0.7394" style="stop-color:#DAE4E3"/>
	<stop  offset="0.8115" style="stop-color:#C4D4D3"/>
	<stop  offset="0.8753" style="stop-color:#A8C0BF"/>
	<stop  offset="0.933" style="stop-color:#88A8A7"/>
	<stop  offset="0.9844" style="stop-color:#648D8C"/>
	<stop  offset="1" style="stop-color:#578483"/>
</linearGradient>
<polygon fill="url(#XMLID_41_)" points="517.174,97.332 487.629,113.856 517.304,110.726 	"/>
<linearGradient id="XMLID_42_" gradientUnits="userSpaceOnUse" x1="524.6787" y1="144.7173" x2="532.742" y2="158.66">
	<stop  offset="0" style="stop-color:#FFFFFF"/>
	<stop  offset="0.4052" style="stop-color:#FDFEFE"/>
	<stop  offset="0.5512" style="stop-color:#F6F9F9"/>
	<stop  offset="0.6552" style="stop-color:#EBF0F0"/>
	<stop  offset="0.7394" style="stop-color:#DAE4E3"/>
	<stop  offset="0.8115" style="stop-color:#C4D4D3"/>
	<stop  offset="0.8753" style="stop-color:#A8C0BF"/>
	<stop  offset="0.933" style="stop-color:#88A8A7"/>
	<stop  offset="0.9844" style="stop-color:#648D8C"/>
	<stop  offset="1" style="stop-color:#578483"/>
</linearGradient>
<polygon fill="url(#XMLID_42_)" points="518.692,167.829 547.689,151.045 537.734,145.604 	"/>
<path fill="#FFFFFF" d="M536.64,144.323l-18.73-32.996l-17.959,32.996H536.64z"/>
<rect x="681.645" fill="#666667" width="0" height="2"/>
</svg>
